# xmcd
#
# Track frame offsets: 
#        150
#        18727
#        41727
#        62672
#        83597
#        100627
#        123732
#        143622
#        161572
#        179965
#
# Disc length: 2756 seconds
#
# Revision: 2
# Processed by: cddbd v1.5.2PL0 Copyright (c) Steve Scherf et al.
# Submitted via: ExactAudioCopy v1.3
#
DISCID=870ac20a
DTITLE=Stevie Wonder - Hotter Than July
DYEAR=1980
DGENRE=R&B
TTITLE0=Did I Hear You Say You Love Me
TTITLE1=All I Do
TTITLE2=Rocket Love
TTITLE3=I Ain't Gonna Stand For It
TTITLE4=As If You Read My Mind
TTITLE5=Master Blaster (Jammin')
TTITLE6=Do Like You
TTITLE7=Cash In Your Face
TTITLE8=Lately
TTITLE9=Happy Birthday
EXTD=
EXTT0=
EXTT1=
EXTT2=
EXTT3=
EXTT4=
EXTT5=
EXTT6=
EXTT7=
EXTT8=
EXTT9=
PLAYORDER=
